<?xml version="1.0" encoding="utf-8"?>
<!-- Generator: Adobe Illustrator 27.5.0, SVG Export Plug-In . SVG Version: 6.00 Build 0)  -->
<svg version="1.1" xmlns="http://www.w3.org/2000/svg" xmlns:xlink="http://www.w3.org/1999/xlink" x="0px" y="0px"
	 viewBox="0 0 500 500.001" style="enable-background:new 0 0 500 500.001;" xml:space="preserve">
<g id="BACKGROUND">
	<g>
		<linearGradient id="SVGID_1_" gradientUnits="userSpaceOnUse" x1="0" y1="249.9996" x2="500" y2="249.9996">
			<stop  offset="0" style="stop-color:#6986D9"/>
			<stop  offset="1" style="stop-color:#8FB3FF"/>
		</linearGradient>
		<rect style="fill:url(#SVGID_1_);" width="500" height="499.999"/>
		<g>
			
				<linearGradient id="SVGID_00000092417032022562825590000007079414342177827005_" gradientUnits="userSpaceOnUse" x1="1.106906e-04" y1="368.1437" x2="499.9987" y2="368.1437">
				<stop  offset="0" style="stop-color:#8FB3FF"/>
				<stop  offset="1" style="stop-color:#6986D9"/>
			</linearGradient>
			<path style="fill:url(#SVGID_00000092417032022562825590000007079414342177827005_);" d="M457.44,238.146
				c-53.997,11.999-79.496,70.497-100.495,116.994c-20.999,43.498-46.497,38.998-89.995,37.498c-59.997-3-125.994,9-163.492,61.497
				c-10.855,15.447-16.823,30.778-18.984,45.863H500V241.728C487.414,236.362,473.321,234.573,457.44,238.146z"/>
			
				<linearGradient id="SVGID_00000139997543141994728920000000959825545741205667_" gradientUnits="userSpaceOnUse" x1="0" y1="110.3208" x2="499.9996" y2="110.3208">
				<stop  offset="0" style="stop-color:#8FB3FF"/>
				<stop  offset="1" style="stop-color:#6986D9"/>
			</linearGradient>
			<path style="fill:url(#SVGID_00000139997543141994728920000000959825545741205667_);" d="M221.952,82.644
				C216.817,53.888,193.404,27.945,188.776,0H0v220.642c47.109-23.067,97-36.382,145.456-54.002
				C181.454,151.64,230.952,129.141,221.952,82.644z"/>
		</g>
		<g style="opacity:0.2;">
			<g>
				<g>
					
						<linearGradient id="SVGID_00000009585233834128104530000009613880478690366103_" gradientUnits="userSpaceOnUse" x1="489.1397" y1="430.2481" x2="597.1466" y2="430.2481" gradientTransform="matrix(-1 0 0 1 677.1935 0)">
						<stop  offset="0" style="stop-color:#3652CD"/>
						<stop  offset="0.9974" style="stop-color:#5758FF"/>
					</linearGradient>
					<path style="fill:url(#SVGID_00000009585233834128104530000009613880478690366103_);" d="M80.047,430.248
						c0,29.826,24.18,54.005,54.005,54.005c29.823,0,54.002-24.179,54.002-54.005s-24.179-54.005-54.002-54.005
						C104.227,376.243,80.047,400.422,80.047,430.248z M103.733,430.248c0-16.744,13.574-30.316,30.318-30.316
						s30.319,13.572,30.319,30.316c0,16.744-13.575,30.316-30.319,30.316S103.733,446.992,103.733,430.248z"/>
				</g>
				<path style="fill:#90B4FE;" d="M134.052,460.565c16.744,0,30.319-13.572,30.319-30.316c0-16.251-12.8-29.479-28.86-30.244
					l4.935-23.371c26.81,3.167,47.608,25.955,47.608,53.615c0,29.826-24.179,54.005-54.002,54.005
					c-5.511,0-10.831-0.832-15.838-2.367l4.936-23.373C126.538,459.819,130.205,460.565,134.052,460.565z"/>
			</g>
			<g>
				<path style="fill:#FFFFFF;" d="M470.269,138.251H361.918V29.899c0-0.969-0.788-1.757-1.76-1.757
					c-0.969,0-1.757,0.788-1.757,1.757V140.01c0,0.969,0.788,1.757,1.757,1.757l0,0l0,0h110.11c0.971,0,1.759-0.788,1.759-1.759
					C472.027,139.039,471.239,138.251,470.269,138.251z"/>
				<path style="fill:#FFFFFF;" d="M471.361,59.588c0.135,0,0.245-0.11,0.245-0.245c0-0.135-0.11-0.244-0.245-0.244h-9.314V38.125
					h9.314c0.135,0,0.245-0.11,0.245-0.245c0-0.135-0.11-0.244-0.245-0.244h-9.314v-9.312c0-0.135-0.11-0.245-0.245-0.245
					c-0.137,0-0.245,0.11-0.245,0.245v9.312h-20.973v-9.312c0-0.135-0.109-0.245-0.245-0.245c-0.136,0-0.247,0.11-0.247,0.245v9.312
					h-20.97v-9.312c0-0.135-0.109-0.245-0.245-0.245c-0.136,0-0.246,0.11-0.246,0.245v9.312h-20.975v-9.312
					c0-0.135-0.107-0.245-0.243-0.245s-0.246,0.11-0.246,0.245v9.312h-20.975v-9.312c0-0.135-0.108-0.245-0.245-0.245
					c-0.137,0-0.245,0.11-0.245,0.245v9.312h-9.311c-0.136,0-0.244,0.109-0.244,0.244c0,0.135,0.108,0.245,0.244,0.245h9.311v20.974
					h-9.311c-0.136,0-0.244,0.109-0.244,0.244c0,0.135,0.108,0.245,0.244,0.245h9.311v20.973h-9.311
					c-0.136,0-0.244,0.111-0.244,0.245c0,0.136,0.108,0.245,0.244,0.245h9.311v20.972h-9.311c-0.136,0-0.244,0.111-0.244,0.247
					c0,0.135,0.108,0.245,0.244,0.245h9.311v20.973h-9.311c-0.136,0-0.244,0.11-0.244,0.244c0,0.135,0.108,0.246,0.244,0.246h9.311
					v9.311c0,0.135,0.108,0.245,0.245,0.245c0.137,0,0.245-0.11,0.245-0.245v-9.311h20.975v9.311c0,0.135,0.109,0.245,0.246,0.245
					s0.243-0.11,0.243-0.245v-9.311h20.975v9.311c0,0.135,0.11,0.245,0.246,0.245c0.136,0,0.245-0.11,0.245-0.245v-9.311h20.97
					v9.311c0,0.135,0.111,0.245,0.247,0.245c0.136,0,0.245-0.11,0.245-0.245v-9.311h20.973v9.311c0,0.135,0.108,0.245,0.245,0.245
					c0.135,0,0.245-0.11,0.245-0.245v-9.311h9.314c0.135,0,0.245-0.111,0.245-0.246c0-0.134-0.11-0.244-0.245-0.244h-9.314v-20.973
					h9.314c0.135,0,0.245-0.11,0.245-0.245c0-0.136-0.11-0.247-0.245-0.247h-9.314V81.051h9.314c0.135,0,0.245-0.109,0.245-0.245
					c0-0.134-0.11-0.245-0.245-0.245h-9.314V59.588H471.361z M461.558,38.125v20.974h-20.973V38.125H461.558z M440.093,38.125
					v20.974h-20.97V38.125H440.093z M418.632,81.051v20.972h-20.975V81.051H418.632z M397.657,80.561V59.588h20.975v20.973H397.657z
					 M419.123,81.051h20.97v20.972h-20.97V81.051z M419.123,80.561V59.588h20.97v20.973H419.123z M418.632,38.125v20.974h-20.975
					V38.125H418.632z M376.193,38.125h20.975v20.974h-20.975V38.125z M376.193,59.588h20.975v20.973h-20.975V59.588z
					 M376.193,81.051h20.975v20.972h-20.975V81.051z M376.193,123.488v-20.973h20.975v20.973H376.193z M397.657,123.488v-20.973
					h20.975v20.973H397.657z M419.123,123.488v-20.973h20.97v20.973H419.123z M461.558,123.488h-20.973v-20.973h20.973V123.488z
					 M461.558,102.023h-20.973V81.051h20.973V102.023z M461.558,80.561h-20.973V59.588h20.973V80.561z"/>
				<g>
					
						<linearGradient id="SVGID_00000052075277645318756920000008489283786705479855_" gradientUnits="userSpaceOnUse" x1="1082.5955" y1="89.0677" x2="1189.9833" y2="89.0677" gradientTransform="matrix(1 0 0 1 -717.957 0)">
						<stop  offset="0" style="stop-color:#3652CD"/>
						<stop  offset="0.9974" style="stop-color:#5758FF"/>
					</linearGradient>
					<path style="fill:url(#SVGID_00000052075277645318756920000008489283786705479855_);" d="M365.619,135.394
						c-0.21,0-0.423-0.069-0.604-0.207c-0.426-0.334-0.503-0.949-0.171-1.377l28.114-36.024c0.227-0.29,0.602-0.43,0.96-0.358
						l25.1,4.853l18.777-30.952c0.244-0.4,0.733-0.57,1.177-0.411l19.361,7.074l11.782-34.583c0.177-0.514,0.73-0.792,1.245-0.612
						c0.512,0.173,0.787,0.733,0.612,1.245l-12.104,35.532c-0.087,0.25-0.269,0.455-0.505,0.568
						c-0.239,0.114-0.51,0.126-0.761,0.037l-19.547-7.142l-18.715,30.847c-0.212,0.35-0.619,0.539-1.023,0.453l-25.181-4.87
						l-27.745,35.551C366.199,135.265,365.911,135.394,365.619,135.394z"/>
				</g>
			</g>
			<g>
				
					<linearGradient id="SVGID_00000072240614733127212930000004062946396736544186_" gradientUnits="userSpaceOnUse" x1="258.898" y1="363.333" x2="258.898" y2="335.9522" gradientTransform="matrix(1 0 0 1 139.4375 0)">
					<stop  offset="0" style="stop-color:#3652CD"/>
					<stop  offset="0.9974" style="stop-color:#5758FF"/>
				</linearGradient>
				
					<rect x="390.057" y="335.952" style="fill:url(#SVGID_00000072240614733127212930000004062946396736544186_);" width="16.558" height="27.381"/>
				
					<linearGradient id="SVGID_00000035499749298689832100000013930356680292204204_" gradientUnits="userSpaceOnUse" x1="300.0342" y1="363.333" x2="300.0342" y2="330.3955" gradientTransform="matrix(1 0 0 1 139.4375 0)">
					<stop  offset="0" style="stop-color:#3652CD"/>
					<stop  offset="0.9974" style="stop-color:#5758FF"/>
				</linearGradient>
				
					<rect x="431.194" y="330.396" style="fill:url(#SVGID_00000035499749298689832100000013930356680292204204_);" width="16.555" height="32.938"/>
				
					<linearGradient id="SVGID_00000088105775483442704180000011880471863644816797_" gradientUnits="userSpaceOnUse" x1="279.4663" y1="363.334" x2="279.4663" y2="313.459" gradientTransform="matrix(1 0 0 1 139.4375 0)">
					<stop  offset="0" style="stop-color:#3652CD"/>
					<stop  offset="0.9974" style="stop-color:#5758FF"/>
				</linearGradient>
				
					<rect x="410.624" y="313.459" style="fill:url(#SVGID_00000088105775483442704180000011880471863644816797_);" width="16.559" height="49.875"/>
				
					<linearGradient id="SVGID_00000103222797621001426610000011909888712464641209_" gradientUnits="userSpaceOnUse" x1="320.6035" y1="363.333" x2="320.6035" y2="298.9092" gradientTransform="matrix(1 0 0 1 139.4375 0)">
					<stop  offset="0" style="stop-color:#3652CD"/>
					<stop  offset="0.9974" style="stop-color:#5758FF"/>
				</linearGradient>
				
					<rect x="451.763" y="298.909" style="fill:url(#SVGID_00000103222797621001426610000011909888712464641209_);" width="16.557" height="64.424"/>
				
					<linearGradient id="SVGID_00000085964880476821268470000014048732889438490537_" gradientUnits="userSpaceOnUse" x1="341.1714" y1="363.333" x2="341.1714" y2="280.9873" gradientTransform="matrix(1 0 0 1 139.4375 0)">
					<stop  offset="0" style="stop-color:#3652CD"/>
					<stop  offset="0.9974" style="stop-color:#5758FF"/>
				</linearGradient>
				
					<rect x="472.33" y="280.987" style="fill:url(#SVGID_00000085964880476821268470000014048732889438490537_);" width="16.558" height="82.346"/>
			</g>
			<g>
				<path style="fill:#BBD2FE;" d="M98.501,37.515c8.831,21.797-1.682,46.63-23.481,55.461c-21.796,8.831-46.629-1.683-55.46-23.479
					c-8.832-21.799,1.682-46.631,23.479-55.461C64.837,5.204,89.669,15.716,98.501,37.515z"/>
				<path style="fill:#90B4FE;" d="M99.191,39.356c-0.214-0.617-0.442-1.231-0.69-1.842C89.669,15.716,64.837,5.204,43.039,14.036
					c-1.528,0.619-3,1.326-4.413,2.098l20.403,37.373L99.191,39.356z"/>
				
					<linearGradient id="SVGID_00000094580429735256365990000004397847715791451011_" gradientUnits="userSpaceOnUse" x1="372.3198" y1="67.5822" x2="414.8567" y2="67.5822" gradientTransform="matrix(0.9268 -0.3755 0.3755 0.9268 -305.9236 144.2281)">
					<stop  offset="0" style="stop-color:#3652CD"/>
					<stop  offset="0.9974" style="stop-color:#5758FF"/>
				</linearGradient>
				<path style="fill:url(#SVGID_00000094580429735256365990000004397847715791451011_);" d="M59.029,53.506l39.66,15.482
					c3.599-9.209,4.019-19.675,0.502-29.632L59.029,53.506z"/>
			</g>
		</g>
	</g>
</g>
<g id="OBJECTS">
	<g>
		<g>
			<path style="fill:#1D0C8C;" d="M230.417,308.498c0.395,2.554-1.356,4.941-3.91,5.335L50.638,340.959
				c-2.553,0.395-4.943-1.355-5.336-3.909L8.085,95.761c-0.393-2.554,1.358-4.943,3.911-5.337l175.869-27.126
				c2.554-0.394,4.943,1.357,5.336,3.91L230.417,308.498z"/>
			<path style="fill:#D8E5FE;" d="M219.67,290.02c0.394,2.554-1.357,4.942-3.91,5.337L55.32,320.103
				c-2.554,0.393-4.943-1.357-5.337-3.911L16.75,100.727c-0.394-2.553,1.357-4.942,3.91-5.336l160.44-24.746
				c2.553-0.394,4.942,1.357,5.336,3.91L219.67,290.02z"/>
			<g>
				<path style="fill:#5758FF;" d="M124.945,65.628l-13.977,2.156c-1.035-6.709-7.313-11.309-14.023-10.274
					c-6.71,1.035-11.309,7.313-10.274,14.022l-13.977,2.155c-5.107,0.788-8.609,5.567-7.821,10.673l0.12,0.776
					c0.788,5.107,5.566,8.608,10.673,7.821l52.25-8.059c5.107-0.788,8.608-5.567,7.821-10.674l-0.12-0.776
					C134.831,68.342,130.052,64.84,124.945,65.628z M99.638,74.96c-3.068,0.473-5.94-1.63-6.413-4.699
					c-0.473-3.068,1.631-5.94,4.7-6.413c3.068-0.473,5.94,1.631,6.413,4.699C104.81,71.616,102.706,74.487,99.638,74.96z"/>
			</g>
			<g style="opacity:0.5;">
				
					<linearGradient id="SVGID_00000115473495465367241540000017344369342083148971_" gradientUnits="userSpaceOnUse" x1="15.282" y1="113.365" x2="179.9967" y2="113.365" gradientTransform="matrix(0.9883 -0.1524 0.1524 0.9883 -29.1235 22.422)">
					<stop  offset="0" style="stop-color:#6986D9"/>
					<stop  offset="1" style="stop-color:#8FB3FF"/>
				</linearGradient>
				<path style="fill:url(#SVGID_00000115473495465367241540000017344369342083148971_);" d="M95.846,117.853
					c0.356,2.312-1.228,4.473-3.538,4.83l-45.896,7.079c-2.311,0.356-4.472-1.228-4.829-3.539l0,0
					c-0.356-2.311,1.228-4.472,3.538-4.829l45.895-7.079C93.328,113.958,95.49,115.543,95.846,117.853L95.846,117.853z"/>
				
					<linearGradient id="SVGID_00000050652745603482031730000013546083085247701640_" gradientUnits="userSpaceOnUse" x1="15.2812" y1="139.7921" x2="180.0151" y2="139.7921" gradientTransform="matrix(0.9883 -0.1524 0.1524 0.9883 -29.1235 22.422)">
					<stop  offset="0" style="stop-color:#6986D9"/>
					<stop  offset="1" style="stop-color:#8FB3FF"/>
				</linearGradient>
				<path style="fill:url(#SVGID_00000050652745603482031730000013546083085247701640_);" d="M76.759,147.536
					c0.356,2.31-1.228,4.472-3.538,4.828l-27.091,4.179c-2.311,0.357-4.473-1.228-4.83-3.538l0,0
					c-0.356-2.311,1.229-4.473,3.54-4.83l27.09-4.178C74.241,143.641,76.403,145.225,76.759,147.536L76.759,147.536z"/>
				
					<linearGradient id="SVGID_00000115473816124601053210000013669438459171476612_" gradientUnits="userSpaceOnUse" x1="15.2824" y1="139.7903" x2="180.0143" y2="139.7903" gradientTransform="matrix(0.9883 -0.1524 0.1524 0.9883 -29.1235 22.422)">
					<stop  offset="0" style="stop-color:#6986D9"/>
					<stop  offset="1" style="stop-color:#8FB3FF"/>
				</linearGradient>
				<path style="fill:url(#SVGID_00000115473816124601053210000013669438459171476612_);" d="M133.091,138.847
					c0.356,2.31-1.228,4.472-3.538,4.829l-45.367,6.997c-2.311,0.356-4.474-1.227-4.83-3.538l0,0
					c-0.356-2.311,1.228-4.473,3.539-4.829l45.367-6.997C130.573,134.952,132.735,136.536,133.091,138.847L133.091,138.847z"/>
				
					<linearGradient id="SVGID_00000170990922383833380690000010017421406427282844_" gradientUnits="userSpaceOnUse" x1="15.2828" y1="171.6045" x2="180.0145" y2="171.6045" gradientTransform="matrix(0.9883 -0.1524 0.1524 0.9883 -29.1235 22.422)">
					<stop  offset="0" style="stop-color:#6986D9"/>
					<stop  offset="1" style="stop-color:#8FB3FF"/>
				</linearGradient>
				<path style="fill:url(#SVGID_00000170990922383833380690000010017421406427282844_);" d="M131.094,171.344
					c0.356,2.311-1.228,4.472-3.538,4.828l-76.576,11.812c-2.312,0.356-4.474-1.228-4.831-3.538l0,0
					c-0.356-2.312,1.229-4.473,3.54-4.83l76.576-11.811C128.576,167.449,130.738,169.033,131.094,171.344L131.094,171.344z"/>
				
					<linearGradient id="SVGID_00000082345687278999461940000000899280052224507527_" gradientUnits="userSpaceOnUse" x1="15.2836" y1="189.1578" x2="179.9998" y2="189.1578" gradientTransform="matrix(0.9883 -0.1524 0.1524 0.9883 -29.1235 22.422)">
					<stop  offset="0" style="stop-color:#6986D9"/>
					<stop  offset="1" style="stop-color:#8FB3FF"/>
				</linearGradient>
				<path style="fill:url(#SVGID_00000082345687278999461940000000899280052224507527_);" d="M103.089,193.423
					c0.356,2.311-1.228,4.473-3.538,4.829l-45.895,7.079c-2.31,0.356-4.474-1.227-4.83-3.538l0,0
					c-0.356-2.311,1.229-4.473,3.54-4.83l45.895-7.079C100.571,189.528,102.732,191.112,103.089,193.423L103.089,193.423z"/>
				
					<linearGradient id="SVGID_00000158728074725826675220000000745262101107770763_" gradientUnits="userSpaceOnUse" x1="15.2842" y1="189.1559" x2="180.0158" y2="189.1559" gradientTransform="matrix(0.9883 -0.1524 0.1524 0.9883 -29.1235 22.422)">
					<stop  offset="0" style="stop-color:#6986D9"/>
					<stop  offset="1" style="stop-color:#8FB3FF"/>
				</linearGradient>
				<path style="fill:url(#SVGID_00000158728074725826675220000000745262101107770763_);" d="M144.8,186.99
					c0.357,2.31-1.229,4.473-3.539,4.829l-26.497,4.087c-2.311,0.356-4.472-1.228-4.829-3.538l0,0
					c-0.356-2.311,1.228-4.473,3.538-4.829l26.497-4.087C142.281,183.095,144.444,184.679,144.8,186.99L144.8,186.99z"/>
				
					<linearGradient id="SVGID_00000172398043658317620340000002628062330471504824_" gradientUnits="userSpaceOnUse" x1="15.2848" y1="215.116" x2="180.0164" y2="215.116" gradientTransform="matrix(0.9883 -0.1524 0.1524 0.9883 -29.1235 22.422)">
					<stop  offset="0" style="stop-color:#6986D9"/>
					<stop  offset="1" style="stop-color:#8FB3FF"/>
				</linearGradient>
				<path style="fill:url(#SVGID_00000172398043658317620340000002628062330471504824_);" d="M118.076,217.376
					c0.356,2.311-1.228,4.473-3.538,4.829l-56.924,8.78c-2.311,0.356-4.474-1.227-4.83-3.539l0,0
					c-0.357-2.311,1.229-4.473,3.539-4.829l56.925-8.78C115.557,213.482,117.719,215.066,118.076,217.376L118.076,217.376z"/>
				
					<linearGradient id="SVGID_00000056425535805193080640000015068336003800394412_" gradientUnits="userSpaceOnUse" x1="15.2829" y1="215.1146" x2="180.0168" y2="215.1146" gradientTransform="matrix(0.9883 -0.1524 0.1524 0.9883 -29.1235 22.422)">
					<stop  offset="0" style="stop-color:#6986D9"/>
					<stop  offset="1" style="stop-color:#8FB3FF"/>
				</linearGradient>
				<path style="fill:url(#SVGID_00000056425535805193080640000015068336003800394412_);" d="M148.757,212.644
					c0.357,2.311-1.228,4.474-3.538,4.83l-18.868,2.911c-2.31,0.356-4.473-1.228-4.83-3.539l0,0
					c-0.356-2.311,1.229-4.473,3.54-4.829l18.867-2.91C146.238,208.749,148.401,210.333,148.757,212.644L148.757,212.644z"/>
				
					<linearGradient id="SVGID_00000078767901976677166270000017696495610054611867_" gradientUnits="userSpaceOnUse" x1="15.2849" y1="232.6682" x2="180.0171" y2="232.6682" gradientTransform="matrix(0.9883 -0.1524 0.1524 0.9883 -29.1235 22.422)">
					<stop  offset="0" style="stop-color:#6986D9"/>
					<stop  offset="1" style="stop-color:#8FB3FF"/>
				</linearGradient>
				<path style="fill:url(#SVGID_00000078767901976677166270000017696495610054611867_);" d="M134,232.68
					c0.356,2.312-1.228,4.473-3.537,4.829l-70.174,10.823c-2.312,0.356-4.474-1.226-4.831-3.538l0,0
					c-0.356-2.31,1.229-4.472,3.54-4.828l70.174-10.824C131.482,228.786,133.644,230.37,134,232.68L134,232.68z"/>
				
					<linearGradient id="SVGID_00000112630296312848344530000013959333014256923285_" gradientUnits="userSpaceOnUse" x1="15.2857" y1="258.6272" x2="180.0193" y2="258.6272" gradientTransform="matrix(0.9883 -0.1524 0.1524 0.9883 -29.1235 22.422)">
					<stop  offset="0" style="stop-color:#6986D9"/>
					<stop  offset="1" style="stop-color:#8FB3FF"/>
				</linearGradient>
				<path style="fill:url(#SVGID_00000112630296312848344530000013959333014256923285_);" d="M106.327,263.212
					c0.356,2.313-1.228,4.475-3.539,4.83l-38.542,5.945c-2.311,0.357-4.474-1.229-4.83-3.539l0,0
					c-0.356-2.311,1.229-4.473,3.54-4.829l38.542-5.944C103.808,259.318,105.97,260.902,106.327,263.212L106.327,263.212z"/>
				
					<linearGradient id="SVGID_00000029004527399032471380000017706397711322617264_" gradientUnits="userSpaceOnUse" x1="15.2842" y1="258.6252" x2="180.0192" y2="258.6252" gradientTransform="matrix(0.9883 -0.1524 0.1524 0.9883 -29.1235 22.422)">
					<stop  offset="0" style="stop-color:#6986D9"/>
					<stop  offset="1" style="stop-color:#8FB3FF"/>
				</linearGradient>
				<path style="fill:url(#SVGID_00000029004527399032471380000017706397711322617264_);" d="M157.44,255.329
					c0.356,2.311-1.228,4.474-3.54,4.83l-40.209,6.201c-2.311,0.356-4.474-1.227-4.83-3.539l0,0
					c-0.356-2.309,1.229-4.472,3.539-4.828l40.21-6.202C154.921,251.435,157.084,253.019,157.44,255.329L157.44,255.329z"/>
				
					<linearGradient id="SVGID_00000168105974121381215660000016064392655266568365_" gradientUnits="userSpaceOnUse" x1="15.286" y1="276.1803" x2="180.0205" y2="276.1803" gradientTransform="matrix(0.9883 -0.1524 0.1524 0.9883 -29.1235 22.422)">
					<stop  offset="0" style="stop-color:#6986D9"/>
					<stop  offset="1" style="stop-color:#8FB3FF"/>
				</linearGradient>
				<path style="fill:url(#SVGID_00000168105974121381215660000016064392655266568365_);" d="M97.69,282.304
					c0.356,2.313-1.228,4.475-3.538,4.83l-27.231,4.2c-2.311,0.356-4.474-1.227-4.831-3.54l0,0c-0.356-2.309,1.23-4.471,3.54-4.827
					l27.231-4.199C95.172,278.411,97.334,279.994,97.69,282.304L97.69,282.304z"/>
			</g>
			<g>
				
					<linearGradient id="SVGID_00000020395334510318809470000012586840370149707169_" gradientUnits="userSpaceOnUse" x1="169.0062" y1="253.3167" x2="169.0062" y2="121.0044" gradientTransform="matrix(0.9883 -0.1524 0.1524 0.9883 -29.1235 22.422)">
					<stop  offset="0" style="stop-color:#6986D9"/>
					<stop  offset="1" style="stop-color:#8FB3FF"/>
				</linearGradient>
				<path style="fill:url(#SVGID_00000020395334510318809470000012586840370149707169_);" d="M164.734,118.856
					c1.53-0.236,2.966,0.816,3.202,2.346l2.407,15.603c0.236,1.53-0.817,2.966-2.347,3.202l-15.602,2.407
					c-1.53,0.236-2.966-0.816-3.202-2.346l-2.407-15.602c-0.236-1.53,0.817-2.966,2.346-3.202L164.734,118.856 M164.449,117.007
					l-15.602,2.406c-2.553,0.394-4.305,2.784-3.911,5.337l2.406,15.602c0.394,2.553,2.784,4.305,5.337,3.911l15.602-2.406
					c2.553-0.394,4.305-2.784,3.911-5.337l-2.406-15.603C169.392,118.364,167.002,116.613,164.449,117.007L164.449,117.007z"/>
				
					<linearGradient id="SVGID_00000059282251209132118160000005336966184782597784_" gradientUnits="userSpaceOnUse" x1="169.0078" y1="253.3169" x2="169.0078" y2="121.0025" gradientTransform="matrix(0.9883 -0.1524 0.1524 0.9883 -29.1235 22.422)">
					<stop  offset="0" style="stop-color:#6986D9"/>
					<stop  offset="1" style="stop-color:#8FB3FF"/>
				</linearGradient>
				<path style="fill:url(#SVGID_00000059282251209132118160000005336966184782597784_);" d="M171.5,162.722
					c1.53-0.236,2.966,0.816,3.202,2.346l2.407,15.602c0.236,1.53-0.817,2.966-2.346,3.202l-15.603,2.406
					c-1.53,0.236-2.966-0.816-3.202-2.346l-2.407-15.603c-0.236-1.529,0.817-2.965,2.347-3.202L171.5,162.722 M171.214,160.873
					l-15.602,2.406c-2.553,0.394-4.304,2.784-3.91,5.337l2.406,15.603c0.394,2.553,2.784,4.304,5.337,3.91l15.602-2.407
					c2.552-0.393,4.304-2.783,3.91-5.336l-2.406-15.603C176.157,162.23,173.768,160.479,171.214,160.873L171.214,160.873z"/>
				
					<linearGradient id="SVGID_00000027592255266104276520000014840610424980726194_" gradientUnits="userSpaceOnUse" x1="169.0091" y1="253.3132" x2="169.0091" y2="121.0067" gradientTransform="matrix(0.9883 -0.1524 0.1524 0.9883 -29.1235 22.422)">
					<stop  offset="0" style="stop-color:#6986D9"/>
					<stop  offset="1" style="stop-color:#8FB3FF"/>
				</linearGradient>
				<path style="fill:url(#SVGID_00000027592255266104276520000014840610424980726194_);" d="M178.266,206.588
					c1.53-0.236,2.966,0.816,3.202,2.346l2.406,15.603c0.236,1.529-0.816,2.966-2.346,3.201l-15.602,2.407
					c-1.53,0.236-2.966-0.817-3.202-2.346l-2.407-15.603c-0.236-1.53,0.817-2.966,2.347-3.201L178.266,206.588 M177.98,204.739
					l-15.602,2.406c-2.553,0.394-4.304,2.784-3.911,5.336l2.406,15.602c0.394,2.553,2.784,4.303,5.337,3.909l15.602-2.406
					c2.553-0.394,4.305-2.782,3.91-5.336l-2.406-15.603C182.923,206.097,180.533,204.345,177.98,204.739L177.98,204.739z"/>
				
					<linearGradient id="SVGID_00000051356770191777444600000017057896425796173472_" gradientUnits="userSpaceOnUse" x1="169.0111" y1="253.3142" x2="169.0111" y2="120.9999" gradientTransform="matrix(0.9883 -0.1524 0.1524 0.9883 -29.1235 22.422)">
					<stop  offset="0" style="stop-color:#6986D9"/>
					<stop  offset="1" style="stop-color:#8FB3FF"/>
				</linearGradient>
				<path style="fill:url(#SVGID_00000051356770191777444600000017057896425796173472_);" d="M185.031,250.453
					c1.53-0.235,2.966,0.816,3.203,2.346l2.406,15.604c0.236,1.529-0.817,2.966-2.346,3.201l-15.602,2.406
					c-1.53,0.236-2.966-0.816-3.202-2.346l-2.406-15.602c-0.236-1.529,0.816-2.966,2.347-3.201L185.031,250.453 M184.746,248.605
					l-15.602,2.406c-2.553,0.393-4.304,2.783-3.91,5.337l2.406,15.602c0.393,2.552,2.784,4.305,5.337,3.911l15.602-2.406
					c2.553-0.395,4.304-2.786,3.911-5.337l-2.407-15.603C189.689,249.961,187.299,248.21,184.746,248.605L184.746,248.605z"/>
			</g>
			<g>
				<g>
					<path style="fill:#6986D9;" d="M159.941,135.598c-0.663,0.102-1.343-0.048-1.904-0.423l-16.034-10.746
						c-1.232-0.825-1.56-2.493-0.735-3.724c0.825-1.232,2.493-1.56,3.724-0.736l13.701,9.182l16.202-26.705
						c0.769-1.268,2.419-1.67,3.688-0.902c1.267,0.77,1.672,2.42,0.903,3.687l-17.66,29.107c-0.38,0.626-1,1.07-1.716,1.229
						C160.054,135.579,159.997,135.588,159.941,135.598z"/>
				</g>
				<g>
					<path style="fill:#6986D9;" d="M166.896,180.69c-0.663,0.102-1.343-0.048-1.904-0.423l-16.033-10.746
						c-1.233-0.825-1.561-2.493-0.736-3.725c0.826-1.232,2.493-1.56,3.724-0.735l13.701,9.181l16.201-26.705
						c0.768-1.267,2.42-1.67,3.688-0.903c1.267,0.77,1.672,2.421,0.903,3.688l-17.66,29.107c-0.38,0.626-1,1.07-1.716,1.229
						C167.009,180.671,166.952,180.681,166.896,180.69z"/>
				</g>
				<g>
					<path style="fill:#6986D9;" d="M173.851,225.782c-0.663,0.102-1.344-0.048-1.904-0.424l-16.034-10.745
						c-1.233-0.825-1.56-2.492-0.735-3.724c0.826-1.232,2.493-1.56,3.724-0.737l13.701,9.183l16.201-26.706
						c0.769-1.268,2.42-1.67,3.689-0.902c1.267,0.769,1.672,2.42,0.903,3.686l-17.66,29.107c-0.38,0.626-1,1.071-1.716,1.23
						C173.964,225.763,173.908,225.774,173.851,225.782z"/>
				</g>
				<g>
					<path style="fill:#6986D9;" d="M180.806,270.874c-0.663,0.101-1.344-0.049-1.904-0.422l-16.033-10.746
						c-1.233-0.825-1.561-2.495-0.736-3.727c0.826-1.23,2.493-1.559,3.724-0.733l13.701,9.179l16.202-26.703
						c0.769-1.269,2.419-1.672,3.688-0.904c1.267,0.77,1.672,2.42,0.903,3.688l-17.66,29.107c-0.38,0.626-1,1.068-1.716,1.228
						C180.918,270.854,180.862,270.864,180.806,270.874z"/>
				</g>
			</g>
		</g>
		<g>
			<path style="fill:#FFFFFF;" d="M242.036,352.185c0.065,2.853-2.194,5.214-5.045,5.279l-138.804,3.157
				c-2.849,0.066-5.214-2.195-5.278-5.047l-4.285-188.511c-0.066-2.851,2.193-5.215,5.045-5.28l138.803-3.154
				c2.851-0.065,5.214,2.193,5.279,5.044L242.036,352.185z"/>
			<g>
				<path style="fill:#FFFFFF;" d="M116.743,183.854c5.187-0.118,9.501,4.004,9.619,9.192c0.117,5.187-4.005,9.503-9.191,9.621
					c-5.187,0.118-9.502-4.007-9.621-9.193C107.432,188.285,111.556,183.971,116.743,183.854 M116.695,181.789
					c-6.335,0.144-11.355,5.396-11.211,11.731c0.145,6.335,5.397,11.355,11.732,11.211c6.336-0.144,11.355-5.398,11.212-11.733
					C128.284,186.665,123.031,181.645,116.695,181.789L116.695,181.789z"/>
				<path style="fill:#FFFFFF;" d="M117.764,228.78c5.187-0.117,9.502,4.009,9.62,9.195c0.117,5.188-4.007,9.504-9.193,9.622
					c-5.187,0.117-9.502-4.008-9.621-9.193C108.453,233.217,112.576,228.901,117.764,228.78 M117.715,226.719
					c-6.335,0.142-11.354,5.396-11.21,11.731c0.144,6.337,5.397,11.355,11.732,11.211c6.336-0.144,11.355-5.395,11.211-11.733
					C129.305,231.594,124.052,226.574,117.715,226.719L117.715,226.719z"/>
				<path style="fill:#FFFFFF;" d="M118.723,269.456c5.188-0.118,9.502,4.006,9.621,9.192c0.118,5.188-4.006,9.504-9.193,9.621
					c-5.187,0.118-9.502-4.007-9.621-9.191C109.412,273.892,113.535,269.575,118.723,269.456 M118.675,267.393
					c-6.335,0.143-11.354,5.395-11.211,11.73c0.144,6.337,5.397,11.355,11.732,11.214c6.335-0.146,11.355-5.398,11.212-11.736
					C130.263,272.267,125.011,267.248,118.675,267.393L118.675,267.393z"/>
				<path style="fill:#FFFFFF;" d="M119.612,310.132c5.187-0.118,9.502,4.007,9.621,9.193c0.118,5.187-4.005,9.505-9.193,9.62
					c-5.187,0.117-9.501-4.006-9.621-9.19C110.302,314.565,114.425,310.25,119.612,310.132 M119.566,308.066
					c-6.337,0.145-11.356,5.398-11.212,11.732c0.145,6.338,5.398,11.356,11.733,11.212c6.334-0.143,11.353-5.396,11.212-11.732
					C131.154,312.943,125.901,307.922,119.566,308.066L119.566,308.066z"/>
			</g>
			<g>
				
					<linearGradient id="SVGID_00000047749542995820397150000001367986934518537132_" gradientUnits="userSpaceOnUse" x1="443.3674" y1="333.0282" x2="254.2625" y2="358.0103" gradientTransform="matrix(0.9997 -0.0227 0.0227 0.9997 -201.9071 -148.7803)">
					<stop  offset="0" style="stop-color:#6986D9"/>
					<stop  offset="1" style="stop-color:#8FB3FF"/>
				</linearGradient>
				<path style="fill:url(#SVGID_00000047749542995820397150000001367986934518537132_);" d="M141.658,185.994l79.343-1.804
					c0.286-0.005,0.51-0.242,0.503-0.528c-0.005-0.285-0.242-0.51-0.526-0.503l-79.344,1.802c-0.285,0.007-0.512,0.243-0.505,0.528
					C141.137,185.776,141.373,186.001,141.658,185.994z"/>
				
					<linearGradient id="SVGID_00000051346119845779816910000006839720455430351749_" gradientUnits="userSpaceOnUse" x1="444.2625" y1="339.7826" x2="255.1525" y2="364.7653" gradientTransform="matrix(0.9997 -0.0227 0.0227 0.9997 -201.9071 -148.7803)">
					<stop  offset="0" style="stop-color:#6986D9"/>
					<stop  offset="1" style="stop-color:#8FB3FF"/>
				</linearGradient>
				<path style="fill:url(#SVGID_00000051346119845779816910000006839720455430351749_);" d="M141.823,193.21l74.086-1.683
					c0.285-0.006,0.509-0.244,0.505-0.528c-0.007-0.287-0.243-0.511-0.53-0.505l-74.086,1.684c-0.284,0.007-0.51,0.243-0.503,0.529
					C141.299,192.993,141.537,193.218,141.823,193.21z"/>
				
					<linearGradient id="SVGID_00000102521401747059318660000018372320620098739595_" gradientUnits="userSpaceOnUse" x1="444.8655" y1="344.3634" x2="255.7587" y2="369.3457" gradientTransform="matrix(0.9997 -0.0227 0.0227 0.9997 -201.9071 -148.7803)">
					<stop  offset="0" style="stop-color:#6986D9"/>
					<stop  offset="1" style="stop-color:#8FB3FF"/>
				</linearGradient>
				<path style="fill:url(#SVGID_00000102521401747059318660000018372320620098739595_);" d="M141.986,200.429l35.37-0.805
					c0.284-0.006,0.511-0.243,0.503-0.527c-0.005-0.286-0.241-0.512-0.527-0.504l-35.369,0.802
					c-0.286,0.007-0.513,0.245-0.506,0.529C141.465,200.208,141.701,200.434,141.986,200.429z"/>
				
					<linearGradient id="SVGID_00000173154274309545913840000006561966785234824624_" gradientUnits="userSpaceOnUse" x1="445.4288" y1="348.6157" x2="256.3197" y2="373.5984" gradientTransform="matrix(0.9997 -0.0227 0.0227 0.9997 -201.9071 -148.7803)">
					<stop  offset="0" style="stop-color:#6986D9"/>
					<stop  offset="1" style="stop-color:#8FB3FF"/>
				</linearGradient>
				<path style="fill:url(#SVGID_00000173154274309545913840000006561966785234824624_);" d="M181.634,198.494
					c-0.286,0.007-0.51,0.243-0.505,0.527c0.007,0.286,0.243,0.511,0.529,0.505l21.51-0.489c0.285-0.006,0.509-0.243,0.503-0.53
					c-0.006-0.284-0.242-0.51-0.526-0.502L181.634,198.494z"/>
				
					<linearGradient id="SVGID_00000149347692131625223160000016962995081705622917_" gradientUnits="userSpaceOnUse" x1="449.049" y1="376.0229" x2="259.944" y2="401.005" gradientTransform="matrix(0.9997 -0.0227 0.0227 0.9997 -201.9071 -148.7803)">
					<stop  offset="0" style="stop-color:#6986D9"/>
					<stop  offset="1" style="stop-color:#8FB3FF"/>
				</linearGradient>
				<path style="fill:url(#SVGID_00000149347692131625223160000016962995081705622917_);" d="M142.68,230.925l61.182-1.39
					c0.282-0.008,0.51-0.245,0.502-0.531c-0.004-0.284-0.241-0.509-0.528-0.504l-61.18,1.393c-0.284,0.005-0.511,0.242-0.504,0.525
					C142.158,230.705,142.394,230.932,142.68,230.925z"/>
				
					<linearGradient id="SVGID_00000155136501030589830790000001083032431350040705_" gradientUnits="userSpaceOnUse" x1="449.894" y1="382.4185" x2="260.7868" y2="407.4009" gradientTransform="matrix(0.9997 -0.0227 0.0227 0.9997 -201.9071 -148.7803)">
					<stop  offset="0" style="stop-color:#6986D9"/>
					<stop  offset="1" style="stop-color:#8FB3FF"/>
				</linearGradient>
				<path style="fill:url(#SVGID_00000155136501030589830790000001083032431350040705_);" d="M142.843,238.142l50.425-1.147
					c0.285-0.006,0.512-0.243,0.505-0.528c-0.006-0.283-0.243-0.51-0.527-0.505l-50.427,1.147c-0.285,0.007-0.51,0.242-0.505,0.527
					C142.321,237.921,142.557,238.148,142.843,238.142z"/>
				
					<linearGradient id="SVGID_00000036941186969228634430000016912517325546957976_" gradientUnits="userSpaceOnUse" x1="450.7087" y1="388.5358" x2="261.5921" y2="413.5194" gradientTransform="matrix(0.9997 -0.0227 0.0227 0.9997 -201.9071 -148.7803)">
					<stop  offset="0" style="stop-color:#6986D9"/>
					<stop  offset="1" style="stop-color:#8FB3FF"/>
				</linearGradient>
				<path style="fill:url(#SVGID_00000036941186969228634430000016912517325546957976_);" d="M143.008,245.357l35.371-0.803
					c0.286-0.01,0.509-0.246,0.505-0.53c-0.007-0.284-0.244-0.509-0.528-0.504l-35.371,0.805c-0.286,0.007-0.512,0.242-0.505,0.527
					C142.486,245.137,142.723,245.363,143.008,245.357z"/>
				
					<linearGradient id="SVGID_00000019660187394706073580000015820719225143321532_" gradientUnits="userSpaceOnUse" x1="451.3802" y1="393.6759" x2="262.2773" y2="418.6577" gradientTransform="matrix(0.9997 -0.0227 0.0227 0.9997 -201.9071 -148.7803)">
					<stop  offset="0" style="stop-color:#6986D9"/>
					<stop  offset="1" style="stop-color:#8FB3FF"/>
				</linearGradient>
				<path style="fill:url(#SVGID_00000019660187394706073580000015820719225143321532_);" d="M218.373,243.128
					c-0.005-0.285-0.241-0.512-0.526-0.505l-35.191,0.8c-0.286,0.007-0.511,0.241-0.505,0.529c0.006,0.282,0.243,0.51,0.529,0.503
					l35.19-0.8C218.156,243.65,218.38,243.411,218.373,243.128z"/>
				
					<linearGradient id="SVGID_00000161622176138105027300000001820865442418340515_" gradientUnits="userSpaceOnUse" x1="450.6433" y1="388.0972" x2="261.5469" y2="413.0782" gradientTransform="matrix(0.9997 -0.0227 0.0227 0.9997 -201.9071 -148.7803)">
					<stop  offset="0" style="stop-color:#6986D9"/>
					<stop  offset="1" style="stop-color:#8FB3FF"/>
				</linearGradient>
				<path style="fill:url(#SVGID_00000161622176138105027300000001820865442418340515_);" d="M196.868,236.395
					c0.004,0.284,0.241,0.512,0.527,0.505l28.788-0.655c0.285-0.005,0.511-0.241,0.504-0.527c-0.006-0.285-0.243-0.51-0.528-0.503
					l-28.788,0.653C197.086,235.875,196.861,236.109,196.868,236.395z"/>
				
					<linearGradient id="SVGID_00000067228404522750333620000016778127332005263251_" gradientUnits="userSpaceOnUse" x1="454.2621" y1="415.472" x2="265.1539" y2="440.4546" gradientTransform="matrix(0.9997 -0.0227 0.0227 0.9997 -201.9071 -148.7803)">
					<stop  offset="0" style="stop-color:#6986D9"/>
					<stop  offset="1" style="stop-color:#8FB3FF"/>
				</linearGradient>
				<path style="fill:url(#SVGID_00000067228404522750333620000016778127332005263251_);" d="M143.604,271.6l52.89-1.204
					c0.284-0.007,0.511-0.241,0.503-0.527c-0.007-0.287-0.243-0.512-0.528-0.504l-52.89,1.202c-0.284,0.007-0.51,0.242-0.504,0.528
					C143.083,271.379,143.318,271.607,143.604,271.6z"/>
				
					<linearGradient id="SVGID_00000145057701545586480530000001880176567855200954_" gradientUnits="userSpaceOnUse" x1="455.3832" y1="423.9445" x2="266.2728" y2="448.9273" gradientTransform="matrix(0.9997 -0.0227 0.0227 0.9997 -201.9071 -148.7803)">
					<stop  offset="0" style="stop-color:#6986D9"/>
					<stop  offset="1" style="stop-color:#8FB3FF"/>
				</linearGradient>
				<path style="fill:url(#SVGID_00000145057701545586480530000001880176567855200954_);" d="M143.769,278.816l74.085-1.683
					c0.286-0.009,0.51-0.246,0.505-0.531c-0.007-0.284-0.244-0.51-0.528-0.504l-74.087,1.685c-0.285,0.006-0.511,0.244-0.505,0.529
					C143.246,278.598,143.483,278.821,143.769,278.816z"/>
				
					<linearGradient id="SVGID_00000119803919043564104430000013653025782585419438_" gradientUnits="userSpaceOnUse" x1="455.9887" y1="428.5252" x2="266.8791" y2="453.5079" gradientTransform="matrix(0.9997 -0.0227 0.0227 0.9997 -201.9071 -148.7803)">
					<stop  offset="0" style="stop-color:#6986D9"/>
					<stop  offset="1" style="stop-color:#8FB3FF"/>
				</linearGradient>
				<path style="fill:url(#SVGID_00000119803919043564104430000013653025782585419438_);" d="M143.932,286.031l35.372-0.803
					c0.284-0.006,0.511-0.245,0.504-0.528c-0.007-0.286-0.243-0.511-0.527-0.505L143.908,285c-0.284,0.006-0.511,0.242-0.504,0.527
					C143.411,285.811,143.647,286.039,143.932,286.031z"/>
				
					<linearGradient id="SVGID_00000107582149022727410240000005929911141824696208_" gradientUnits="userSpaceOnUse" x1="454.9856" y1="420.9419" x2="265.8738" y2="445.925" gradientTransform="matrix(0.9997 -0.0227 0.0227 0.9997 -201.9071 -148.7803)">
					<stop  offset="0" style="stop-color:#6986D9"/>
					<stop  offset="1" style="stop-color:#8FB3FF"/>
				</linearGradient>
				<path style="fill:url(#SVGID_00000107582149022727410240000005929911141824696208_);" d="M201.39,270.282l21.558-0.486
					c0.284-0.007,0.51-0.245,0.503-0.529c-0.006-0.285-0.241-0.512-0.527-0.504l-21.557,0.489c-0.285,0.007-0.511,0.242-0.505,0.527
					C200.869,270.065,201.108,270.291,201.39,270.282z"/>
				
					<linearGradient id="SVGID_00000144323077386905088460000009189406265376888497_" gradientUnits="userSpaceOnUse" x1="459.384" y1="454.2374" x2="270.2774" y2="479.2197" gradientTransform="matrix(0.9997 -0.0227 0.0227 0.9997 -201.9071 -148.7803)">
					<stop  offset="0" style="stop-color:#6986D9"/>
					<stop  offset="1" style="stop-color:#8FB3FF"/>
				</linearGradient>
				<path style="fill:url(#SVGID_00000144323077386905088460000009189406265376888497_);" d="M144.528,312.273l34.032-0.772
					c0.285-0.009,0.511-0.244,0.504-0.529c-0.006-0.286-0.243-0.512-0.527-0.504l-34.032,0.773
					c-0.285,0.006-0.511,0.242-0.504,0.528C144.006,312.053,144.244,312.278,144.528,312.273z"/>
				
					<linearGradient id="SVGID_00000147195661458120748250000008006051874803933571_" gradientUnits="userSpaceOnUse" x1="460.4759" y1="462.4999" x2="271.3683" y2="487.4824" gradientTransform="matrix(0.9997 -0.0227 0.0227 0.9997 -201.9071 -148.7803)">
					<stop  offset="0" style="stop-color:#6986D9"/>
					<stop  offset="1" style="stop-color:#8FB3FF"/>
				</linearGradient>
				<path style="fill:url(#SVGID_00000147195661458120748250000008006051874803933571_);" d="M144.692,319.49l52.027-1.184
					c0.283-0.006,0.509-0.242,0.503-0.528c-0.008-0.283-0.243-0.509-0.527-0.503l-52.025,1.182c-0.286,0.008-0.51,0.244-0.505,0.527
					C144.172,319.271,144.408,319.496,144.692,319.49z"/>
				
					<linearGradient id="SVGID_00000114045373156000360540000007219313647111500197_" gradientUnits="userSpaceOnUse" x1="461.2345" y1="468.2024" x2="272.1196" y2="493.1858" gradientTransform="matrix(0.9997 -0.0227 0.0227 0.9997 -201.9071 -148.7803)">
					<stop  offset="0" style="stop-color:#6986D9"/>
					<stop  offset="1" style="stop-color:#8FB3FF"/>
				</linearGradient>
				<path style="fill:url(#SVGID_00000114045373156000360540000007219313647111500197_);" d="M175.423,324.979l-30.589,0.695
					c-0.284,0.007-0.511,0.245-0.505,0.528c0.008,0.285,0.243,0.511,0.528,0.505l30.59-0.696c0.287-0.008,0.512-0.242,0.506-0.526
					C175.945,325.198,175.708,324.973,175.423,324.979z"/>
				
					<linearGradient id="SVGID_00000132073265778544173720000010352156513405522622_" gradientUnits="userSpaceOnUse" x1="461.9516" y1="473.653" x2="272.8406" y2="498.636" gradientTransform="matrix(0.9997 -0.0227 0.0227 0.9997 -201.9071 -148.7803)">
					<stop  offset="0" style="stop-color:#6986D9"/>
					<stop  offset="1" style="stop-color:#8FB3FF"/>
				</linearGradient>
				<path style="fill:url(#SVGID_00000132073265778544173720000010352156513405522622_);" d="M219.697,323.974l-35.192,0.798
					c-0.285,0.008-0.511,0.244-0.505,0.529c0.008,0.284,0.244,0.512,0.529,0.505l35.191-0.801c0.283-0.009,0.509-0.243,0.504-0.528
					C220.217,324.19,219.982,323.966,219.697,323.974z"/>
				
					<linearGradient id="SVGID_00000062895460796512479150000017657832386587722158_" gradientUnits="userSpaceOnUse" x1="460.149" y1="460.0134" x2="271.0385" y2="484.9962" gradientTransform="matrix(0.9997 -0.0227 0.0227 0.9997 -201.9071 -148.7803)">
					<stop  offset="0" style="stop-color:#6986D9"/>
					<stop  offset="1" style="stop-color:#8FB3FF"/>
				</linearGradient>
				<path style="fill:url(#SVGID_00000062895460796512479150000017657832386587722158_);" d="M227.845,309.347l-43.668,0.992
					c-0.285,0.008-0.512,0.241-0.506,0.528c0.008,0.282,0.244,0.511,0.53,0.504l43.668-0.994c0.283-0.005,0.511-0.24,0.504-0.527
					C228.367,309.564,228.13,309.339,227.845,309.347z"/>
				
					<linearGradient id="SVGID_00000119109945726986188030000015895287194156323489_" gradientUnits="userSpaceOnUse" x1="461.2136" y1="468.0835" x2="272.109" y2="493.0656" gradientTransform="matrix(0.9997 -0.0227 0.0227 0.9997 -201.9071 -148.7803)">
					<stop  offset="0" style="stop-color:#6986D9"/>
					<stop  offset="1" style="stop-color:#8FB3FF"/>
				</linearGradient>
				<path style="fill:url(#SVGID_00000119109945726986188030000015895287194156323489_);" d="M228.009,316.564l-28.666,0.65
					c-0.286,0.007-0.513,0.245-0.506,0.528c0.008,0.287,0.242,0.513,0.528,0.507l28.667-0.652c0.286-0.007,0.511-0.243,0.505-0.529
					C228.53,316.782,228.294,316.556,228.009,316.564z"/>
			</g>
			<g>
				<g>
					
						<linearGradient id="SVGID_00000159464897177717007230000013078394920882100102_" gradientUnits="userSpaceOnUse" x1="296.6237" y1="386.9292" x2="331.8984" y2="386.9292" gradientTransform="matrix(0.9997 -0.0227 0.0227 0.9997 -201.9073 -148.7802)">
						<stop  offset="0" style="stop-color:#6986D9"/>
						<stop  offset="1" style="stop-color:#8FB3FF"/>
					</linearGradient>
					<path style="fill:url(#SVGID_00000159464897177717007230000013078394920882100102_);" d="M118.081,244.344
						c-0.571,0.013-1.129-0.189-1.56-0.566l-12.335-10.837c-0.948-0.83-1.04-2.275-0.209-3.221c0.831-0.949,2.276-1.041,3.223-0.209
						l10.54,9.258l16.617-20.733c0.788-0.985,2.225-1.141,3.211-0.355c0.984,0.79,1.142,2.227,0.353,3.212l-18.111,22.597
						c-0.391,0.486-0.964,0.794-1.584,0.847C118.179,244.34,118.128,244.343,118.081,244.344z"/>
				</g>
				<g>
					
						<linearGradient id="SVGID_00000059300816126070948050000003026308382535602304_" gradientUnits="userSpaceOnUse" x1="296.6221" y1="339.5091" x2="331.8966" y2="339.5091" gradientTransform="matrix(0.9997 -0.0227 0.0227 0.9997 -201.9073 -148.7802)">
						<stop  offset="0" style="stop-color:#6986D9"/>
						<stop  offset="1" style="stop-color:#8FB3FF"/>
					</linearGradient>
					<path style="fill:url(#SVGID_00000059300816126070948050000003026308382535602304_);" d="M117.002,196.938
						c-0.571,0.014-1.129-0.188-1.559-0.566l-12.336-10.835c-0.947-0.833-1.039-2.277-0.208-3.223
						c0.833-0.948,2.277-1.04,3.224-0.21l10.54,9.259l16.617-20.733c0.789-0.985,2.226-1.143,3.21-0.354
						c0.983,0.79,1.142,2.226,0.354,3.21l-18.112,22.598c-0.39,0.486-0.962,0.792-1.583,0.846
						C117.102,196.934,117.05,196.937,117.002,196.938z"/>
				</g>
				<g>
					
						<linearGradient id="SVGID_00000160166817247214080130000005853250978979804309_" gradientUnits="userSpaceOnUse" x1="296.625" y1="427.0998" x2="331.899" y2="427.0998" gradientTransform="matrix(0.9997 -0.0227 0.0227 0.9997 -201.9073 -148.7802)">
						<stop  offset="0" style="stop-color:#6986D9"/>
						<stop  offset="1" style="stop-color:#8FB3FF"/>
					</linearGradient>
					<path style="fill:url(#SVGID_00000160166817247214080130000005853250978979804309_);" d="M118.993,284.502
						c-0.571,0.013-1.126-0.189-1.558-0.566L105.099,273.1c-0.948-0.832-1.04-2.275-0.21-3.222c0.833-0.948,2.276-1.041,3.223-0.211
						l10.54,9.26l16.619-20.734c0.788-0.983,2.224-1.14,3.21-0.354c0.982,0.79,1.142,2.227,0.352,3.212l-18.111,22.597
						c-0.39,0.485-0.962,0.794-1.584,0.847C119.091,284.498,119.041,284.502,118.993,284.502z"/>
				</g>
				<g>
					
						<linearGradient id="SVGID_00000041976143434497458100000007268849320212691629_" gradientUnits="userSpaceOnUse" x1="296.6247" y1="466.3535" x2="331.9003" y2="466.3535" gradientTransform="matrix(0.9997 -0.0227 0.0227 0.9997 -201.9071 -148.7803)">
						<stop  offset="0" style="stop-color:#6986D9"/>
						<stop  offset="1" style="stop-color:#8FB3FF"/>
					</linearGradient>
					<path style="fill:url(#SVGID_00000041976143434497458100000007268849320212691629_);" d="M119.886,323.743
						c-0.573,0.015-1.128-0.189-1.559-0.566l-12.337-10.835c-0.948-0.831-1.04-2.275-0.209-3.223
						c0.832-0.949,2.277-1.039,3.224-0.211l10.541,9.26l16.616-20.731c0.789-0.985,2.226-1.145,3.21-0.355
						c0.985,0.788,1.144,2.225,0.356,3.209l-18.113,22.598c-0.39,0.486-0.962,0.793-1.585,0.847
						C119.983,323.741,119.934,323.745,119.886,323.743z"/>
				</g>
			</g>
		</g>
		<g>
			
				<linearGradient id="SVGID_00000021813811620843779550000016777294798121116071_" gradientUnits="userSpaceOnUse" x1="289.6043" y1="65.8716" x2="289.6043" y2="80.2524">
				<stop  offset="0.0148" style="stop-color:#FFFFFF"/>
				<stop  offset="0.9994" style="stop-color:#E1E7FF"/>
			</linearGradient>
			<path style="fill:url(#SVGID_00000021813811620843779550000016777294798121116071_);" d="M364.146,72.316
				c0,5.334-4.324,9.658-9.658,9.658H224.721c-5.334,0-9.658-4.324-9.658-9.658l0,0c0-5.334,4.324-9.658,9.658-9.658h129.766
				C359.821,62.658,364.146,66.982,364.146,72.316L364.146,72.316z"/>
			<path style="fill:#D8E5FE;" d="M364.146,72.316c0-5.334-4.324-9.658-9.658-9.658h-17.559v19.316h17.559
				C359.821,81.974,364.146,77.65,364.146,72.316z"/>
			<path style="fill:#FFFFFF;" d="M352.867,68.085c-1.604-1.627-4.235-1.646-5.862-0.041c-1.627,1.604-1.645,4.234-0.042,5.861
				c1.452,1.472,3.74,1.622,5.368,0.452l3.126,3.17c0.248,0.252,0.653,0.255,0.906,0.006c0.252-0.25,0.253-0.654,0.006-0.907
				l-3.126-3.168C354.437,71.846,354.318,69.556,352.867,68.085z M351.926,73.034c-1.125,1.108-2.941,1.094-4.05-0.029
				c-1.108-1.124-1.096-2.942,0.028-4.049c1.124-1.109,2.94-1.096,4.05,0.028C353.063,70.107,353.05,71.925,351.926,73.034z"/>
		</g>
		<g>
			<path style="fill:#FFFFFF;" d="M313.416,436.088c-1.751,2.112-4.884,2.403-6.995,0.652L189.8,339.96
				c-2.112-1.754-2.403-4.886-0.651-6.997l136.762-164.799c1.752-2.112,4.884-2.404,6.995-0.652l116.62,96.782
				c2.112,1.753,2.403,4.884,0.652,6.995L313.416,436.088z"/>
			<path style="fill:#D8E5FE;" d="M333.865,410.38c-1.36,2.382-4.394,3.212-6.777,1.852L195.46,337.126
				c-2.384-1.36-3.213-4.397-1.853-6.78l106.135-186.003c1.36-2.384,4.395-3.213,6.777-1.854l131.627,75.107
				c2.384,1.36,3.215,4.394,1.853,6.778L333.865,410.38z"/>
			<g>
				
					<linearGradient id="SVGID_00000051371220387045731220000007016481424478607806_" gradientUnits="userSpaceOnUse" x1="223.0704" y1="380.0135" x2="315.4907" y2="578.767" gradientTransform="matrix(0.8686 0.4956 -0.4956 0.8686 354.6371 -272.013)">
					<stop  offset="0" style="stop-color:#8FB3FF"/>
					<stop  offset="1" style="stop-color:#6986D9"/>
				</linearGradient>
				<path style="fill:url(#SVGID_00000051371220387045731220000007016481424478607806_);" d="M299.827,168.289l114.643,65.415
					c0.239,0.138,0.543,0.054,0.68-0.186c0.136-0.237,0.053-0.541-0.186-0.678L300.32,167.425c-0.238-0.136-0.542-0.052-0.678,0.187
					C299.507,167.85,299.59,168.152,299.827,168.289z"/>
				
					<linearGradient id="SVGID_00000098212689070045481710000005222314524738191773_" gradientUnits="userSpaceOnUse" x1="199.1998" y1="391.1131" x2="291.617" y2="589.86" gradientTransform="matrix(0.8686 0.4956 -0.4956 0.8686 354.6371 -272.013)">
					<stop  offset="0" style="stop-color:#8FB3FF"/>
					<stop  offset="1" style="stop-color:#6986D9"/>
				</linearGradient>
				<path style="fill:url(#SVGID_00000098212689070045481710000005222314524738191773_);" d="M294.696,177.283l72.574,41.41
					c0.238,0.137,0.542,0.054,0.678-0.185c0.136-0.239,0.053-0.542-0.186-0.677l-72.575-41.412c-0.237-0.137-0.54-0.053-0.678,0.185
					C294.375,176.844,294.458,177.146,294.696,177.283z"/>
				
					<linearGradient id="SVGID_00000159445983350286293400000017856030749627218053_" gradientUnits="userSpaceOnUse" x1="253.908" y1="365.6763" x2="346.3226" y2="564.4177" gradientTransform="matrix(0.8686 0.4956 -0.4956 0.8686 354.6371 -272.013)">
					<stop  offset="0" style="stop-color:#8FB3FF"/>
					<stop  offset="1" style="stop-color:#6986D9"/>
				</linearGradient>
				<path style="fill:url(#SVGID_00000159445983350286293400000017856030749627218053_);" d="M371.432,219.924
					c-0.239-0.136-0.541-0.053-0.679,0.184c-0.136,0.239-0.054,0.543,0.185,0.679l35.676,20.355
					c0.238,0.137,0.542,0.055,0.678-0.184c0.137-0.238,0.053-0.542-0.186-0.678L371.432,219.924z"/>
				
					<linearGradient id="SVGID_00000016785392281136198010000009687364615334029954_" gradientUnits="userSpaceOnUse" x1="208.8237" y1="386.6378" x2="301.2419" y2="585.387" gradientTransform="matrix(0.8686 0.4956 -0.4956 0.8686 354.6371 -272.013)">
					<stop  offset="0" style="stop-color:#8FB3FF"/>
					<stop  offset="1" style="stop-color:#6986D9"/>
				</linearGradient>
				<path style="fill:url(#SVGID_00000016785392281136198010000009687364615334029954_);" d="M289.563,186.278l101.273,57.785
					c0.239,0.138,0.541,0.055,0.678-0.185c0.136-0.238,0.054-0.542-0.185-0.677l-101.273-57.788
					c-0.238-0.136-0.543-0.053-0.678,0.185C289.242,185.838,289.325,186.141,289.563,186.278z"/>
				
					<linearGradient id="SVGID_00000076592527150891204010000011642727085133238424_" gradientUnits="userSpaceOnUse" x1="196.6401" y1="392.3027" x2="289.0583" y2="591.0518" gradientTransform="matrix(0.8686 0.4956 -0.4956 0.8686 354.6371 -272.013)">
					<stop  offset="0" style="stop-color:#8FB3FF"/>
					<stop  offset="1" style="stop-color:#6986D9"/>
				</linearGradient>
				<path style="fill:url(#SVGID_00000076592527150891204010000011642727085133238424_);" d="M284.432,195.273l83.897,47.871
					c0.239,0.138,0.541,0.054,0.678-0.185c0.136-0.238,0.053-0.541-0.185-0.677l-83.897-47.873
					c-0.239-0.136-0.542-0.053-0.679,0.186C284.109,194.833,284.193,195.136,284.432,195.273z"/>
				
					<linearGradient id="SVGID_00000085955589001762264430000004226645460286996115_" gradientUnits="userSpaceOnUse" x1="202.1296" y1="389.7477" x2="294.55" y2="588.5015" gradientTransform="matrix(0.8686 0.4956 -0.4956 0.8686 354.6371 -272.013)">
					<stop  offset="0" style="stop-color:#8FB3FF"/>
					<stop  offset="1" style="stop-color:#6986D9"/>
				</linearGradient>
				<path style="fill:url(#SVGID_00000085955589001762264430000004226645460286996115_);" d="M279.299,204.267l103.862,59.264
					c0.239,0.136,0.543,0.054,0.678-0.185c0.137-0.238,0.055-0.543-0.185-0.678l-103.862-59.266
					c-0.238-0.137-0.543-0.053-0.678,0.186C278.978,203.828,279.062,204.13,279.299,204.267z"/>
				
					<linearGradient id="SVGID_00000126282213029169043700000006380381286375784079_" gradientUnits="userSpaceOnUse" x1="190.1369" y1="395.3275" x2="282.554" y2="594.074" gradientTransform="matrix(0.8686 0.4956 -0.4956 0.8686 354.6371 -272.013)">
					<stop  offset="0" style="stop-color:#8FB3FF"/>
					<stop  offset="1" style="stop-color:#6986D9"/>
				</linearGradient>
				<path style="fill:url(#SVGID_00000126282213029169043700000006380381286375784079_);" d="M274.166,213.262l86.888,49.578
					c0.238,0.137,0.543,0.053,0.679-0.186c0.136-0.239,0.053-0.541-0.186-0.679L274.659,212.4c-0.238-0.137-0.541-0.054-0.678,0.184
					C273.845,212.823,273.928,213.125,274.166,213.262z"/>
				
					<linearGradient id="SVGID_00000076592361870756880130000014315552522539365045_" gradientUnits="userSpaceOnUse" x1="190.5348" y1="395.1406" x2="282.9532" y2="593.89" gradientTransform="matrix(0.8686 0.4956 -0.4956 0.8686 354.6371 -272.013)">
					<stop  offset="0" style="stop-color:#8FB3FF"/>
					<stop  offset="1" style="stop-color:#6986D9"/>
				</linearGradient>
				<path style="fill:url(#SVGID_00000076592361870756880130000014315552522539365045_);" d="M269.034,222.256l96.096,54.834
					c0.239,0.134,0.542,0.052,0.677-0.186c0.137-0.239,0.054-0.541-0.185-0.679l-96.097-54.832c-0.237-0.136-0.54-0.054-0.676,0.185
					C268.713,221.816,268.796,222.122,269.034,222.256z"/>
				
					<linearGradient id="SVGID_00000046297366465224111250000015668013047922300032_" gradientUnits="userSpaceOnUse" x1="178.0657" y1="400.9381" x2="270.4845" y2="599.6885" gradientTransform="matrix(0.8686 0.4956 -0.4956 0.8686 354.6371 -272.013)">
					<stop  offset="0" style="stop-color:#8FB3FF"/>
					<stop  offset="1" style="stop-color:#6986D9"/>
				</linearGradient>
				<path style="fill:url(#SVGID_00000046297366465224111250000015668013047922300032_);" d="M263.902,231.25l78.115,44.575
					c0.239,0.135,0.542,0.052,0.679-0.186c0.137-0.238,0.053-0.543-0.185-0.678l-78.117-44.573
					c-0.238-0.137-0.541-0.052-0.678,0.187C263.58,230.811,263.662,231.115,263.902,231.25z"/>
				
					<linearGradient id="SVGID_00000169540890068037187280000001342955273734982026_" gradientUnits="userSpaceOnUse" x1="228.9327" y1="377.2982" x2="321.3412" y2="576.0266" gradientTransform="matrix(0.8686 0.4956 -0.4956 0.8686 354.6371 -272.013)">
					<stop  offset="0" style="stop-color:#8FB3FF"/>
					<stop  offset="1" style="stop-color:#6986D9"/>
				</linearGradient>
				<path style="fill:url(#SVGID_00000169540890068037187280000001342955273734982026_);" d="M347.977,278.081
					c-0.239-0.138-0.542-0.054-0.678,0.185c-0.136,0.238-0.053,0.542,0.186,0.678l18.414,10.505
					c0.239,0.137,0.541,0.055,0.678-0.184c0.135-0.238,0.053-0.543-0.186-0.678L347.977,278.081z"/>
				
					<linearGradient id="SVGID_00000046336270008449730130000016485375554163441844_" gradientUnits="userSpaceOnUse" x1="188.9904" y1="395.8563" x2="281.4103" y2="594.6091" gradientTransform="matrix(0.8686 0.4956 -0.4956 0.8686 354.6371 -272.013)">
					<stop  offset="0" style="stop-color:#8FB3FF"/>
					<stop  offset="1" style="stop-color:#6986D9"/>
				</linearGradient>
				<path style="fill:url(#SVGID_00000046336270008449730130000016485375554163441844_);" d="M258.769,240.245l109.566,62.519
					c0.237,0.137,0.541,0.054,0.677-0.185c0.138-0.238,0.054-0.543-0.186-0.679l-109.564-62.518
					c-0.239-0.137-0.542-0.052-0.679,0.185C258.448,239.807,258.53,240.109,258.769,240.245z"/>
				
					<linearGradient id="SVGID_00000152983436786147027390000000866289073412098471_" gradientUnits="userSpaceOnUse" x1="187.4343" y1="396.5799" x2="279.8534" y2="595.331" gradientTransform="matrix(0.8686 0.4956 -0.4956 0.8686 354.6371 -272.013)">
					<stop  offset="0" style="stop-color:#8FB3FF"/>
					<stop  offset="1" style="stop-color:#6986D9"/>
				</linearGradient>
				<path style="fill:url(#SVGID_00000152983436786147027390000000866289073412098471_);" d="M368.772,313.793l-114.643-65.416
					c-0.238-0.136-0.541-0.054-0.677,0.185c-0.136,0.24-0.054,0.541,0.185,0.679l114.644,65.415
					c0.238,0.136,0.542,0.054,0.678-0.185C369.093,314.233,369.011,313.928,368.772,313.793z"/>
				
					<linearGradient id="SVGID_00000132789442049177713830000001894684289326843826_" gradientUnits="userSpaceOnUse" x1="163.5638" y1="407.6794" x2="255.9825" y2="606.4294" gradientTransform="matrix(0.8686 0.4956 -0.4956 0.8686 354.6371 -272.013)">
					<stop  offset="0" style="stop-color:#8FB3FF"/>
					<stop  offset="1" style="stop-color:#6986D9"/>
				</linearGradient>
				<path style="fill:url(#SVGID_00000132789442049177713830000001894684289326843826_);" d="M248.505,258.234l72.573,41.41
					c0.239,0.138,0.543,0.054,0.679-0.186c0.137-0.238,0.054-0.54-0.185-0.678l-72.575-41.409c-0.238-0.137-0.541-0.054-0.678,0.185
					C248.184,257.795,248.267,258.1,248.505,258.234z"/>
				
					<linearGradient id="SVGID_00000140721435284099474160000015955491531749342124_" gradientUnits="userSpaceOnUse" x1="218.2683" y1="382.2342" x2="310.6919" y2="580.9948" gradientTransform="matrix(0.8686 0.4956 -0.4956 0.8686 354.6371 -272.013)">
					<stop  offset="0" style="stop-color:#8FB3FF"/>
					<stop  offset="1" style="stop-color:#6986D9"/>
				</linearGradient>
				<path style="fill:url(#SVGID_00000140721435284099474160000015955491531749342124_);" d="M360.916,321.233l-35.677-20.358
					c-0.237-0.135-0.541-0.053-0.677,0.187c-0.137,0.238-0.054,0.541,0.185,0.678l35.676,20.357
					c0.239,0.135,0.542,0.052,0.679-0.187C361.237,321.672,361.154,321.369,360.916,321.233z"/>
				
					<linearGradient id="SVGID_00000182512318389423199750000016895021781547189924_" gradientUnits="userSpaceOnUse" x1="173.1889" y1="403.2064" x2="265.6055" y2="601.952" gradientTransform="matrix(0.8686 0.4956 -0.4956 0.8686 354.6371 -272.013)">
					<stop  offset="0" style="stop-color:#8FB3FF"/>
					<stop  offset="1" style="stop-color:#6986D9"/>
				</linearGradient>
				<path style="fill:url(#SVGID_00000182512318389423199750000016895021781547189924_);" d="M243.373,267.229l101.273,57.786
					c0.238,0.137,0.542,0.055,0.677-0.184c0.137-0.239,0.054-0.543-0.185-0.678l-101.273-57.787
					c-0.238-0.136-0.542-0.054-0.678,0.185C243.052,266.789,243.135,267.094,243.373,267.229z"/>
				
					<linearGradient id="SVGID_00000162343080841972671320000018197040654219976595_" gradientUnits="userSpaceOnUse" x1="161.0031" y1="408.8658" x2="253.4234" y2="607.6194" gradientTransform="matrix(0.8686 0.4956 -0.4956 0.8686 354.6371 -272.013)">
					<stop  offset="0" style="stop-color:#8FB3FF"/>
					<stop  offset="1" style="stop-color:#6986D9"/>
				</linearGradient>
				<path style="fill:url(#SVGID_00000162343080841972671320000018197040654219976595_);" d="M238.241,276.224l83.897,47.873
					c0.238,0.135,0.541,0.053,0.678-0.186c0.135-0.239,0.053-0.542-0.187-0.679l-83.896-47.872
					c-0.238-0.137-0.542-0.055-0.677,0.185C237.919,275.784,238.001,276.088,238.241,276.224z"/>
				
					<linearGradient id="SVGID_00000008144413576457668450000014531215612262022562_" gradientUnits="userSpaceOnUse" x1="166.494" y1="406.3145" x2="258.9131" y2="605.0657" gradientTransform="matrix(0.8686 0.4956 -0.4956 0.8686 354.6371 -272.013)">
					<stop  offset="0" style="stop-color:#8FB3FF"/>
					<stop  offset="1" style="stop-color:#6986D9"/>
				</linearGradient>
				<path style="fill:url(#SVGID_00000008144413576457668450000014531215612262022562_);" d="M233.107,285.219l103.863,59.264
					c0.238,0.137,0.541,0.054,0.678-0.186c0.137-0.238,0.054-0.542-0.186-0.678l-103.862-59.265
					c-0.238-0.135-0.542-0.053-0.678,0.187C232.787,284.779,232.869,285.081,233.107,285.219z"/>
				
					<linearGradient id="SVGID_00000010991503767248944160000014894526546766747821_" gradientUnits="userSpaceOnUse" x1="154.5011" y1="411.8948" x2="246.9183" y2="610.6417" gradientTransform="matrix(0.8686 0.4956 -0.4956 0.8686 354.6371 -272.013)">
					<stop  offset="0" style="stop-color:#8FB3FF"/>
					<stop  offset="1" style="stop-color:#6986D9"/>
				</linearGradient>
				<path style="fill:url(#SVGID_00000010991503767248944160000014894526546766747821_);" d="M227.976,294.213l86.888,49.578
					c0.238,0.135,0.543,0.053,0.677-0.187c0.137-0.236,0.055-0.541-0.185-0.678l-86.888-49.576
					c-0.238-0.137-0.542-0.054-0.678,0.185C227.654,293.773,227.737,294.078,227.976,294.213z"/>
				
					<linearGradient id="SVGID_00000088092138876509291970000008987858014569063559_" gradientUnits="userSpaceOnUse" x1="154.8981" y1="411.7041" x2="247.3177" y2="610.4562" gradientTransform="matrix(0.8686 0.4956 -0.4956 0.8686 354.6371 -272.013)">
					<stop  offset="0" style="stop-color:#8FB3FF"/>
					<stop  offset="1" style="stop-color:#6986D9"/>
				</linearGradient>
				<path style="fill:url(#SVGID_00000088092138876509291970000008987858014569063559_);" d="M222.843,303.207l96.096,54.831
					c0.238,0.137,0.542,0.055,0.678-0.184c0.138-0.238,0.054-0.541-0.185-0.677l-96.095-54.834c-0.24-0.135-0.543-0.053-0.679,0.186
					C222.522,302.768,222.604,303.072,222.843,303.207z"/>
				
					<linearGradient id="SVGID_00000067206539266896555640000002680053189922071211_" gradientUnits="userSpaceOnUse" x1="142.431" y1="417.5052" x2="234.8487" y2="616.2531" gradientTransform="matrix(0.8686 0.4956 -0.4956 0.8686 354.6371 -272.013)">
					<stop  offset="0" style="stop-color:#8FB3FF"/>
					<stop  offset="1" style="stop-color:#6986D9"/>
				</linearGradient>
				<path style="fill:url(#SVGID_00000067206539266896555640000002680053189922071211_);" d="M217.711,312.201l78.117,44.573
					c0.238,0.137,0.541,0.055,0.678-0.185c0.136-0.238,0.054-0.542-0.185-0.678l-78.117-44.572
					c-0.238-0.138-0.542-0.056-0.677,0.184C217.391,311.763,217.473,312.065,217.711,312.201z"/>
				
					<linearGradient id="SVGID_00000153688618393389867480000006670269205198717110_" gradientUnits="userSpaceOnUse" x1="193.2859" y1="393.8405" x2="285.7109" y2="592.6042" gradientTransform="matrix(0.8686 0.4956 -0.4956 0.8686 354.6371 -272.013)">
					<stop  offset="0" style="stop-color:#8FB3FF"/>
					<stop  offset="1" style="stop-color:#6986D9"/>
				</linearGradient>
				<path style="fill:url(#SVGID_00000153688618393389867480000006670269205198717110_);" d="M301.786,359.029
					c-0.239-0.134-0.541-0.052-0.679,0.187c-0.134,0.239-0.052,0.541,0.186,0.679l18.414,10.506
					c0.238,0.137,0.541,0.054,0.678-0.185c0.137-0.238,0.052-0.541-0.186-0.678L301.786,359.029z"/>
				
					<linearGradient id="SVGID_00000169539842149273441110000010824814434222986124_" gradientUnits="userSpaceOnUse" x1="153.3522" y1="412.4177" x2="245.7737" y2="611.174" gradientTransform="matrix(0.8686 0.4956 -0.4956 0.8686 354.6371 -272.013)">
					<stop  offset="0" style="stop-color:#8FB3FF"/>
					<stop  offset="1" style="stop-color:#6986D9"/>
				</linearGradient>
				<path style="fill:url(#SVGID_00000169539842149273441110000010824814434222986124_);" d="M322.637,382.851l-109.565-62.518
					c-0.238-0.136-0.541-0.052-0.678,0.187c-0.137,0.238-0.054,0.541,0.186,0.678l109.564,62.517
					c0.238,0.138,0.542,0.054,0.678-0.185C322.958,383.289,322.875,382.987,322.637,382.851z"/>
			</g>
			<path style="fill:#8FB3FF;" d="M336.019,253.435c-1.112,2.927-4.387,4.396-7.314,3.282l-64.378-24.488
				c-2.927-1.111-4.397-4.387-3.283-7.314l26.403-69.412c1.112-2.928,4.388-4.396,7.314-3.284l64.379,24.489
				c2.927,1.114,4.397,4.388,3.282,7.315L336.019,253.435z"/>
			<g>
				<path style="fill:#1D0C8C;" d="M334.994,150.2c-3.755-2.142-8.993-2.155-12.234,1.556l3.205,1.828
					c2.037-1.755,4.986-1.585,7.262-0.287c2.775,1.584,3.744,5.128,2.16,7.904l-11.044,19.355c-1.43,2.505-4.206,4.271-7.189,2.57
					c-2.774-1.584-3.744-5.13-2.161-7.904l4.925-8.633c0.489-0.855,0.191-1.943-0.664-2.432c-0.857-0.488-1.943-0.19-2.432,0.666
					l-4.926,8.632c-2.558,4.481-0.992,10.211,3.49,12.769c4.296,2.449,9.365,0.81,12.054-3.9l11.045-19.356
					C341.043,158.487,339.477,152.759,334.994,150.2z"/>
			</g>
		</g>
		<path style="fill:#3652CD;" d="M288.63,317.267H140.38v-17.846c0-3.006-2.436-5.441-5.442-5.441H57.665
			c-3.006,0-5.442,2.436-5.442,5.441v149.104c0,3.006,2.436,5.442,5.442,5.442H82.24h52.697H288.63c3.006,0,5.441-2.436,5.441-5.442
			V322.709C294.071,319.702,291.636,317.267,288.63,317.267z"/>
		<g>
			<g>
				<path style="fill:#F6A9A3;" d="M500,335.236l-86.865,54.807c0,0-13.309-22.958-44.818-9.713c0,0-21.957-1.423-43.788-19.949
					c-13.655-11.585-26.053-0.791-16.378,14.852c8.303,13.425,33.602,30.52,33.602,30.52l-31.678,31.072
					c0,0,23.207,29.77,31.506,34.168c8.299,4.397,57.699-2.298,73.27-30.68L500,421.716V335.236z"/>
				<g>
					<g>
						<path style="fill:#DB6356;" d="M392.211,404.139c-4.59,0.396-9.097,0.959-13.12,3.37c-4.87,2.915-8.196,8.697-10.324,13.78
							c-0.317,0.757-1.419,0.112-1.105-0.637c2.293-5.474,5.798-10.887,10.796-14.251c3.981-2.681,9.102-3.137,13.746-3.539
							C393.025,402.791,393.025,404.067,392.211,404.139L392.211,404.139z"/>
					</g>
				</g>
			</g>
			<g>
				<polygon style="fill:#BDD0FB;" points="303.952,404.187 315.129,394.445 280.845,355.547 269.667,365.289 				"/>
				<polygon style="opacity:0.5;fill:#BDD0FB;" points="275.256,360.416 269.667,365.289 303.952,404.187 309.541,399.315 				"/>
				<path style="fill:#1D0C8C;" d="M354.506,471.577c4.926,5.652,13.504,6.241,19.158,1.313l0,0
					c5.653-4.927,6.242-13.504,1.315-19.157l-57.876-66.408c-4.93-5.654-13.506-6.243-19.159-1.316l0,0
					c-5.654,4.928-6.243,13.506-1.315,19.159L354.506,471.577z"/>
				<g>
					<path style="fill:#1D0C8C;" d="M175.92,361.228c27.473,31.521,75.295,34.802,106.815,7.332
						c31.52-27.473,34.804-75.294,7.331-106.815c-27.471-31.52-75.294-34.803-106.814-7.332
						C151.731,281.885,148.449,329.707,175.92,361.228z M191.685,264.087c26.177-22.815,65.894-20.088,88.708,6.089
						c22.815,26.178,20.088,65.895-6.09,88.707c-26.178,22.815-65.894,20.091-88.707-6.088
						C162.778,326.618,165.507,286.901,191.685,264.087z"/>
				</g>
				<g>
					<path style="fill:#8199FD;" d="M178.139,359.294c26.405,30.294,72.367,33.45,102.662,7.046
						c30.297-26.402,33.451-72.365,7.047-102.661c-26.402-30.296-72.366-33.451-102.66-7.047
						C154.891,283.035,151.735,328.998,178.139,359.294z M191.685,264.087c26.177-22.815,65.894-20.088,88.708,6.089
						c22.815,26.178,20.088,65.895-6.09,88.707c-26.178,22.815-65.894,20.091-88.707-6.088
						C162.778,326.618,165.507,286.901,191.685,264.087z"/>
				</g>
				
					<linearGradient id="SVGID_00000027592745647576974260000010391411807816700339_" gradientUnits="userSpaceOnUse" x1="137.7144" y1="167.0333" x2="44.5815" y2="316.3013" gradientTransform="matrix(-0.7539 0.657 0.657 0.7539 137.2348 67.6694)">
					<stop  offset="0.0148" style="stop-color:#FFFFFF"/>
					<stop  offset="0.9994" style="stop-color:#E1E7FF"/>
				</linearGradient>
				<path style="opacity:0.7;fill:url(#SVGID_00000027592745647576974260000010391411807816700339_);" d="M185.596,352.795
					c22.813,26.179,62.529,28.903,88.707,6.088c26.178-22.813,28.904-62.529,6.09-88.707c-22.814-26.177-62.531-28.904-88.708-6.089
					C165.507,286.901,162.778,326.618,185.596,352.795z"/>
				<g>
					<path style="fill:#FFFFFF;" d="M268.968,352.504c1.28,1.683,0.952,4.083-0.73,5.363c-12.018,9.137-26.921,13.212-41.966,11.477
						c-2.958-0.342-5.908-0.915-8.77-1.703c-2.039-0.562-3.234-2.669-2.673-4.708c0.121-0.443,0.319-0.85,0.571-1.203
						c0.907-1.271,2.543-1.908,4.136-1.469c2.482,0.685,5.045,1.184,7.612,1.478c13.071,1.508,26.02-2.03,36.456-9.966
						C265.287,350.494,267.689,350.821,268.968,352.504z"/>
					<path style="fill:#FFFFFF;" d="M203.638,352.68c1.722,1.225,2.121,3.616,0.895,5.337c-1.227,1.721-3.616,2.122-5.338,0.895
						c-6.542-4.662-11.946-10.487-16.065-17.312c-0.812-1.346-0.696-2.995,0.161-4.199c0.295-0.414,0.678-0.776,1.141-1.054
						c1.809-1.093,4.162-0.51,5.254,1.301C193.259,343.569,197.953,348.626,203.638,352.68z"/>
				</g>
			</g>
			<g>
				<path style="fill:#F6A9A3;" d="M306.982,443.534c-7.541-2.47-17.754-11.327-12.551-21.029
					c5.204-9.703,28.457-33.317,46.087-29.508c11.955,2.583,9.232,15.763-2.56,26.532
					C326.168,430.297,306.982,443.534,306.982,443.534z"/>
				<g>
					<path style="fill:#DB6356;" d="M345.966,410.586c2.288-3.982,3.167-7.803,2.417-11.026c-0.817-3.505-3.533-6.018-7.852-7.271
						c-5.732-1.66-12.051,0.539-16.341,2.676c-0.315,0.159-0.444,0.541-0.287,0.856c0.157,0.316,0.54,0.444,0.854,0.287
						c4.088-2.037,10.082-4.14,15.419-2.593c3.85,1.115,6.257,3.306,6.964,6.334c1.208,5.182-2.539,12.504-9.777,19.112
						c-0.258,0.243-0.276,0.642-0.041,0.901c0.238,0.261,0.642,0.279,0.902,0.041C341.58,416.839,344.195,413.664,345.966,410.586z"
						/>
				</g>
				<path style="fill:#F6A9A3;" d="M323.639,457.806c-8.996,1.013-23.106-7.578-16.086-19.775
					c5.494-9.542,33.327-38.892,50.957-35.081c11.955,2.583,7.99,14.675-3.801,25.442
					C342.918,439.16,323.639,457.806,323.639,457.806z"/>
				<g>
					<path style="fill:#DB6356;" d="M363.788,418.509c2.222-3.865,3.079-7.44,2.321-10.249c-0.566-2.094-2.318-4.824-7.465-5.934
						c-9.859-2.132-22.065,5.709-30.568,12.662c-9.455,7.734-18.141,17.626-21.076,22.725l0,0c-0.176,0.305-0.07,0.694,0.234,0.87
						c0.305,0.176,0.695,0.07,0.871-0.235c5.633-9.785,33.205-38.463,50.27-34.775c3.627,0.785,5.815,2.472,6.501,5.019
						c1.291,4.776-2.772,12.184-10.598,19.33c-0.261,0.241-0.276,0.642-0.041,0.902c0.238,0.261,0.642,0.277,0.901,0.041
						C358.932,425.4,361.868,421.847,363.788,418.509z"/>
				</g>
				<path style="fill:#F6A9A3;" d="M321.346,456.232c1.889-3.285,5.208-7.612,9.345-11.98c6.103-6.444,13.987-12.979,21.729-16.402
					c4.413-1.95,8.778-2.894,12.736-2.226c9.141,1.545,8.075,8.444,1.266,18.293c-1.19,1.719-2.552,3.528-4.068,5.417
					c-5.171,6.434-11.973,12.257-14.641,14.45l1.233,1.414l5.56,6.38c0.602,0.689,1.258,1.302,1.957,1.839
					c-6.701,1.46-14.887,2.501-22.188,1.321C325.338,473.296,315.703,466.046,321.346,456.232z"/>
				<g>
					<path style="fill:#DB6356;" d="M349.065,463.364c2.403-1.941,8.608-7.19,13.786-13.631c7.719-9.606,10.715-16.268,9.154-20.368
						c-0.871-2.292-3.14-3.763-6.744-4.37c-8.917-1.505-19.015,4.807-25.917,10.363c-8.664,6.98-15.561,15.353-18.552,20.557
						c-0.176,0.304-0.07,0.694,0.235,0.87c0.306,0.176,0.696,0.069,0.871-0.236c5.889-10.244,27.674-32.907,43.151-30.296
						c3.123,0.527,5.065,1.727,5.764,3.565c1.364,3.591-1.648,10.023-8.959,19.114c-6.439,8.012-14.498,14.159-14.578,14.22
						c-0.196,0.151-0.287,0.395-0.24,0.635c0.049,0.24,0.229,0.43,0.465,0.491L349.065,463.364z"/>
				</g>
			</g>
		</g>
		<g>
			<path style="fill:#FFFFFF;" d="M324.636,311.528L324.636,311.528c-2.09-3.047,14.956-23.703,20.004-27.166l113.855-78.12
				c5.047-3.465,17.589,14.814,12.542,18.28l-113.854,78.119C352.134,306.103,326.727,314.574,324.636,311.528L324.636,311.528z"/>
			<path style="fill:#1D0C8C;" d="M344.276,284.626c0.423,3.141,2.132,6.716,4.581,10.283c2.446,3.568,5.169,6.451,7.946,7.976
				c0.136-0.084,0.265-0.167,0.378-0.244l102.109-70.061c0.161-3.543-0.965-7.524-3.418-11.098
				c-2.452-3.572-5.762-6.058-9.125-7.181L344.64,284.362C344.526,284.44,344.401,284.53,344.276,284.626z"/>
			<path style="fill:#8199FD;" d="M461.527,217.602c2.387,3.48,3.635,7.312,3.774,10.853l5.734-3.933
				c5.047-3.466-7.495-21.745-12.542-18.28l-5.733,3.933C456.013,211.58,459.138,214.122,461.527,217.602z"/>
			<path style="fill:#8199FD;" d="M326.833,305.372c-1.817,2.952-2.797,5.282-2.197,6.156c0.602,0.872,3.126,0.798,6.536,0.164
				c0.036-1.33-0.328-2.686-1.139-3.867C329.223,306.643,328.09,305.817,326.833,305.372z"/>
			<path style="fill:#3652CD;" d="M455.873,221.482c-2.452-3.572-5.762-6.058-9.125-7.181L344.64,284.362
				c-0.113,0.077-0.238,0.168-0.363,0.264c0.423,3.141,2.132,6.716,4.581,10.283"/>
		</g>
	</g>
</g>
</svg>
